<svg xmlns="http://www.w3.org/2000/svg" viewBox="0 0 25 22" width="25" height="22">
	<defs>
		<clipPath clipPathUnits="userSpaceOnUse" id="cp1">
			<path d="M-360 -241L280 -241L280 254L-360 254Z" />
		</clipPath>
	</defs>
	<style>
		tspan { white-space:pre }
		.shp0 { fill: #e7c68e;stroke: #e7c68e;stroke-width: 2.5 } 
	</style>
	<g id="Like's" clip-path="url(#cp1)">
		<g id="Group 439">
			<g id="heart" style="opacity: 0.698">
				<g id="Group 12">
					<path id="Path 5" class="shp0" d="M16.65 3.5C15.71 3.5 14.86 3.8 14.1 4.38C13.38 4.94 12.89 5.65 12.61 6.17C12.33 5.65 11.84 4.94 11.12 4.38C10.37 3.8 9.51 3.5 8.57 3.5C5.97 3.5 4 5.63 4 8.46C4 11.52 6.45 13.61 10.17 16.77C10.8 17.31 11.51 17.92 12.26 18.57C12.35 18.66 12.48 18.7 12.61 18.7C12.74 18.7 12.87 18.66 12.96 18.57C13.71 17.92 14.42 17.31 15.05 16.77C18.77 13.61 21.22 11.52 21.22 8.46C21.22 5.63 19.25 3.5 16.65 3.5Z" />
				</g>
			</g>
		</g>
	</g>
</svg>