<svg xmlns="http://www.w3.org/2000/svg" viewBox="0 0 8 10" width="13" height="20">
	<defs>
		<clipPath clipPathUnits="userSpaceOnUse" id="cp1">
			<path d="M-445 -497L195 -497L195 157L-445 157Z" />
		</clipPath>
	</defs>
	<style>
		tspan { white-space:pre }
		.shp0 { fill: #e7c68e } 
	</style>
	<g id="All Posting" clip-path="url(#cp1)">
		<g id="Group 437">
			<g id="Group 9">
				<g id="location-pin">
					<path id="Path 1" fill-rule="evenodd" class="shp0" d="M4.24 0L4.26 0C6.05 0 7.5 1.33 7.5 2.97C7.5 4.05 6.97 5.47 5.91 7.19C5.13 8.47 4.34 9.45 4.33 9.46C4.31 9.48 4.28 9.5 4.24 9.5C4.24 9.5 4.24 9.5 4.24 9.5C4.2 9.5 4.17 9.48 4.14 9.45C4.14 9.44 3.35 8.35 2.58 7.02C1.53 5.22 1 3.86 1 2.97C1 1.33 2.45 0 4.24 0ZM2.75 3.05C2.75 3.81 3.42 4.43 4.25 4.43C5.08 4.43 5.75 3.81 5.75 3.05C5.75 2.29 5.08 1.67 4.25 1.67C3.42 1.67 2.75 2.29 2.75 3.05Z" />
				</g>
			</g>
		</g>
	</g>
</svg>