<svg xmlns="http://www.w3.org/2000/svg" viewBox="0 0 16 17" width="38" height="32">
	<defs>
		<clipPath clipPathUnits="userSpaceOnUse" id="cp1">
			<path d="M-563 -487L77 -487L77 167L-563 167Z" />
		</clipPath>
	</defs>
	<style>
		tspan { white-space:pre }
		.shp0 { fill: #e7c68e;stroke: #e7c68e } 
	</style>
	<g id="All Posting" clip-path="url(#cp1)">
		<g id="Group 437">
			<g id="share(1)">
				<g id="Group 11">
					<path id="Path 4" fill-rule="evenodd" class="shp0" d="M14.62 13.17C14.62 14.53 13.52 15.63 12.16 15.63C10.81 15.63 9.7 14.53 9.7 13.17C9.7 12.92 9.74 12.67 9.81 12.44L5.96 10.47C5.51 11.1 4.78 11.5 3.96 11.5C2.6 11.5 1.5 10.4 1.5 9.04C1.5 7.68 2.6 6.58 3.96 6.58C4.7 6.58 5.36 6.91 5.81 7.42L9.87 4.98C9.76 4.71 9.7 4.41 9.7 4.09C9.7 2.73 10.81 1.63 12.16 1.63C13.52 1.63 14.62 2.73 14.62 4.09C14.62 5.45 13.52 6.55 12.16 6.55C11.41 6.55 10.74 6.22 10.29 5.69L6.24 8.12C6.36 8.4 6.42 8.71 6.42 9.04C6.42 9.28 6.39 9.51 6.32 9.73L10.18 11.71C10.63 11.1 11.35 10.71 12.16 10.71C13.52 10.71 14.62 11.81 14.62 13.17ZM10.52 4.09C10.52 5 11.26 5.73 12.16 5.73C13.07 5.73 13.8 5 13.8 4.09C13.8 3.19 13.07 2.45 12.16 2.45C11.26 2.45 10.52 3.19 10.52 4.09ZM5.6 9.04C5.6 8.14 4.87 7.4 3.96 7.4C3.06 7.4 2.32 8.14 2.32 9.04C2.32 9.95 3.06 10.68 3.96 10.68C4.87 10.68 5.6 9.95 5.6 9.04ZM13.8 13.17C13.8 12.27 13.07 11.53 12.16 11.53C11.26 11.53 10.52 12.27 10.52 13.17C10.52 14.07 11.26 14.81 12.16 14.81C13.07 14.81 13.8 14.07 13.8 13.17Z" />
				</g>
			</g>
		</g>
	</g>
</svg>