<svg xmlns="http://www.w3.org/2000/svg" viewBox="0 0 34 26" width="34" height="26">
	<defs>
		<clipPath clipPathUnits="userSpaceOnUse" id="cp1">
			<path d="M-49 -328L591 -328L591 167L-49 167Z" />
		</clipPath>
	</defs>
	<style>
		tspan { white-space:pre }
		.shp0 { fill: #e7c68e;stroke: #e7c68e } 
	</style>
	<g id="Followers" clip-path="url(#cp1)">
		<g id="sidemenu">
			<g id="Group 416">
				<g id="followers">
					<path id="Path 517" fill-rule="evenodd" class="shp0" d="M17.5 11.2C15.38 11.2 13.65 9.48 13.65 7.35C13.65 5.23 15.38 3.5 17.5 3.5C19.62 3.5 21.35 5.23 21.35 7.35C21.35 9.48 19.62 11.2 17.5 11.2ZM17.5 4.69C16.03 4.69 14.83 5.89 14.83 7.36C14.83 8.84 16.02 10.03 17.5 10.03C18.97 10.03 20.17 8.84 20.17 7.36C20.17 5.89 18.96 4.69 17.5 4.69Z" />
					<path id="Path 518" fill-rule="evenodd" class="shp0" d="M9.63 11.13C7.89 11.13 6.48 9.72 6.48 7.98C6.48 6.24 7.89 4.83 9.63 4.83C11.36 4.83 12.77 6.24 12.77 7.98C12.77 9.72 11.36 11.13 9.63 11.13ZM9.63 6.01C8.55 6.01 7.66 6.89 7.66 7.97C7.66 9.05 8.55 9.94 9.63 9.94C10.71 9.94 11.59 9.05 11.59 7.97C11.59 6.89 10.71 6.01 9.63 6.01Z" />
					<path id="Path 519" fill-rule="evenodd" class="shp0" d="M25.37 11.13C23.63 11.13 22.22 9.72 22.22 7.98C22.22 6.24 23.63 4.83 25.37 4.83C27.11 4.83 28.52 6.24 28.52 7.98C28.52 9.72 27.11 11.13 25.37 11.13ZM25.37 6.01C24.29 6.01 23.41 6.89 23.41 7.97C23.41 9.05 24.29 9.94 25.37 9.94C26.45 9.94 27.34 9.05 27.34 7.97C27.34 6.89 26.45 6.01 25.37 6.01Z" />
					<path id="Path 520" fill-rule="evenodd" class="shp0" d="M31 20.87C31 21.11 30.91 21.35 30.72 21.54C30.47 21.78 30.11 21.92 29.71 21.92L24.51 21.92L24.52 22.82C24.53 23.09 24.41 23.35 24.21 23.56C23.93 23.84 23.5 24 23.04 24L11.98 24C11.51 24 11.08 23.84 10.81 23.56C10.6 23.35 10.49 23.08 10.5 22.81L10.51 21.92L5.29 21.92C4.89 21.92 4.53 21.78 4.28 21.54C4.09 21.35 4 21.11 4 20.86L4.03 16.18C4.03 13.95 6.27 11.55 9.63 11.55C11.33 11.55 12.82 12.03 13.86 12.9C14.89 12.38 16.12 12.06 17.5 12.06C18.88 12.06 20.11 12.38 21.13 12.9C22.18 12.03 23.67 11.55 25.37 11.55C28.73 11.55 30.97 13.95 30.97 16.19L31 20.87ZM12.78 13.57C11.98 13.03 10.86 12.73 9.63 12.73C7.02 12.73 5.21 14.55 5.21 16.18L5.18 20.73C5.21 20.74 5.24 20.74 5.29 20.74L10.51 20.74L10.54 17.66C10.54 16.19 11.36 14.66 12.78 13.57ZM23.3 22.76L23.27 17.68C23.27 15.54 20.95 13.25 17.49 13.25C14.03 13.25 11.71 15.54 11.71 17.67L11.67 22.76C11.72 22.79 11.83 22.83 11.97 22.83L23.03 22.83C23.17 22.83 23.27 22.79 23.3 22.76ZM29.81 20.73L29.78 16.19C29.78 14.56 27.96 12.74 25.36 12.74C24.13 12.74 23.01 13.04 22.21 13.58C23.63 14.67 24.46 16.19 24.46 17.67L24.49 20.75L29.71 20.75C29.76 20.75 29.79 20.74 29.81 20.73Z" />
				</g>
			</g>
		</g>
	</g>
</svg>