<svg xmlns="http://www.w3.org/2000/svg" viewBox="0 0 204 172" width="204" height="172">
	<defs>
		<clipPath clipPathUnits="userSpaceOnUse" id="cp1">
			<path d="M-351 -183L289 -183L289 312L-351 312Z" />
		</clipPath>
		<linearGradient id="grd1" gradientUnits="userSpaceOnUse"  x1="15.999" y1="6.516" x2="194.148" y2="170.999">
			<stop offset="0" stop-color="#9d7a54"  />
			<stop offset="0.486" stop-color="#bb996c"  />
			<stop offset="1" stop-color="#e7c68e"  />
		</linearGradient>
		<linearGradient id="grd2" gradientUnits="userSpaceOnUse"  x1="-141.328" y1="-92.159" x2="154.359" y2="129.661">
			<stop offset="0" stop-color="#9d7a54"  />
			<stop offset="0.486" stop-color="#bb996c"  />
			<stop offset="1" stop-color="#e7c68e"  />
		</linearGradient>
	</defs>
	<style>
		tspan { white-space:pre }
		.shp0 { fill: url(#grd1) } 
		.shp1 { fill: url(#grd2) } 
	</style>
	<g id="Myorder_Inprogress" clip-path="url(#cp1)">
		<g id="Group 442">
			<g id="laptop" style="opacity: 0.302">
				<g id="Group 518">
					<path id="Path 529" fill-rule="evenodd" class="shp0" d="M117.05 82.77L104.96 82.77C103.21 82.77 101.75 81.35 101.75 79.56L101.75 79.22C101.75 77.47 103.17 76.01 104.96 76.01L119.01 76.01C120.88 76.01 122.55 77.26 123.05 79.06L126.22 90.19C127.68 89.27 129.39 88.77 131.18 88.77L193.42 88.77C196.29 88.77 199.04 90.02 200.88 92.23C202.75 94.56 203.42 97.56 202.71 100.44L194.25 134.5C193.21 138.71 189.45 141.62 185.12 141.62L134.39 141.62C132.22 141.62 130.47 143.42 130.55 145.58C130.64 147.67 132.39 149.25 134.47 149.25L177.03 149.25C183.08 149.25 188.08 154.09 188.08 160.13C188.08 166.39 182.74 171.43 176.41 170.97C171.24 170.6 166.99 166.55 166.4 161.38C166.2 159.67 166.4 158.05 166.94 156.55L154.23 156.55C154.61 157.67 154.86 158.88 154.86 160.13C154.86 166.39 149.56 171.43 143.23 170.97C137.89 170.6 133.6 166.34 133.14 161.01C133.01 159.42 133.22 157.92 133.72 156.51C127.93 156.13 123.34 151.3 123.34 145.42C123.34 140.21 126.93 135.83 131.76 134.62L123.26 104.48L117.05 82.77ZM177.2 163.8C179.16 163.8 180.78 162.18 180.78 160.22C180.78 158.26 179.16 156.63 177.2 156.63C175.24 156.63 173.61 158.26 173.61 160.22C173.61 162.18 175.24 163.8 177.2 163.8ZM143.94 163.8C145.89 163.8 147.52 162.18 147.52 160.22C147.52 158.26 145.89 156.63 143.94 156.63C141.98 156.63 140.35 158.26 140.35 160.22C140.35 162.18 141.98 163.8 143.94 163.8ZM195.67 98.73C195.87 97.86 195.5 97.23 195.29 96.94C195.04 96.65 194.54 96.15 193.62 96.15L187.62 96.15L185.83 104.61L194.21 104.61L195.67 98.73ZM192.37 111.86L184.29 111.86L182.62 119.7L190.46 119.7L192.37 111.86ZM185.16 134.37C186.12 134.37 187 133.7 187.2 132.79L188.66 126.99L181.12 126.99L179.58 134.41L185.16 134.41L185.16 134.37ZM166.32 134.37L172.07 134.37L173.61 126.95L166.32 126.95L166.32 134.37ZM175.2 119.7L176.87 111.86L166.36 111.86L166.36 119.7L175.2 119.7ZM166.32 104.57L178.37 104.57L180.16 96.11L166.32 96.11L166.32 104.57ZM153.9 134.37L159.03 134.37L159.03 126.95L152.27 126.95L153.9 134.37ZM150.65 119.7L159.03 119.7L159.03 111.86L148.94 111.86L150.65 119.7ZM159.03 104.57L159.03 96.11L145.48 96.11L147.31 104.57L159.03 104.57ZM138.77 132.83C139.02 133.75 139.85 134.37 140.81 134.37L146.44 134.37L144.81 126.95L137.14 126.95L138.77 132.83ZM135.06 119.7L143.19 119.7L141.48 111.86L132.85 111.86L135.06 119.7ZM129.18 98.81L130.8 104.57L139.89 104.57L138.06 96.11L131.22 96.11C130.3 96.11 129.76 96.65 129.55 96.94C129.26 97.27 128.93 97.94 129.18 98.81Z" />
					<path id="Path 530" fill-rule="evenodd" class="shp1" d="M1.92 111.9L9.96 101.98C11.25 100.4 11.96 98.44 11.96 96.4L11.96 17.2C11.96 8.57 18.97 1.57 27.59 1.57L153.4 1.57C162.03 1.57 169.03 8.57 169.03 17.2L169.03 78.14L153.44 78.14L153.44 17.16C153.44 17.16 153.44 17.16 153.4 17.16C153.36 17.16 27.55 17.16 27.55 17.16L27.55 97.4L109.5 97.4L111.51 104.57L118.59 129.66L11.63 129.66C5.75 129.66 1 124.91 1 119.03L1 114.49C1 113.57 1.33 112.65 1.92 111.9ZM73.57 114.2C73.57 117.16 75.99 119.57 78.95 119.57L102.08 119.57C105.04 119.57 107.46 117.16 107.46 114.2L107.46 113.03L73.53 113.03L73.53 114.2L73.57 114.2Z" />
				</g>
			</g>
		</g>
	</g>
</svg>