<svg xmlns="http://www.w3.org/2000/svg" viewBox="0 0 16 28" width="16" height="28">
	<defs>
		<clipPath clipPathUnits="userSpaceOnUse" id="cp1">
			<path d="M-143 -211L497 -211L497 284L-143 284Z" />
		</clipPath>
	</defs>
	<style>
		tspan { white-space:pre }
		.shp0 { fill: #e7c68e } 
	</style>
	<g id="Followers" clip-path="url(#cp1)">
		<g id="sidemenu">
			<g id="Group 478">
				<g id="Location">
					<g id="Group 477">
						<path id="Path 509" fill-rule="evenodd" class="shp0" d="M15.29 8.65C15.29 12.18 10.48 19.97 8.26 23.83C7.99 24.3 7.3 24.3 7.03 23.83C4.81 19.97 0 12.18 0 8.65C0 4.42 3.42 1 7.65 1C11.87 1 15.29 4.42 15.29 8.65ZM3.53 8.65C3.53 10.92 5.37 12.76 7.65 12.76C9.92 12.76 11.76 10.92 11.76 8.65C11.76 6.37 9.92 4.53 7.65 4.53C5.37 4.53 3.53 6.37 3.53 8.65Z" />
						<path id="Path 510" class="shp0" d="M10.67 22.77C10.32 22.7 10.1 22.35 10.17 21.99C10.25 21.64 10.6 21.42 10.96 21.49C12.1 21.75 13.07 22.14 13.76 22.61C16.09 24.23 14.81 26.23 12.62 27.14C9.84 28.29 5.45 28.29 2.67 27.14C0.48 26.23 -0.79 24.23 1.53 22.61C2.22 22.14 3.19 21.75 4.33 21.49C4.69 21.42 5.04 21.64 5.12 21.99C5.19 22.35 4.97 22.7 4.62 22.77C3.64 22.99 2.83 23.31 2.28 23.69C0.87 24.68 2.04 25.45 3.17 25.92C5.62 26.94 9.67 26.94 12.12 25.92C13.25 25.45 14.42 24.68 13.01 23.69C12.46 23.31 11.65 22.99 10.67 22.77Z" />
					</g>
				</g>
			</g>
		</g>
	</g>
</svg>