<svg xmlns="http://www.w3.org/2000/svg" viewBox="0 0 30 30" width="30" height="30">
	<defs>
		<clipPath clipPathUnits="userSpaceOnUse" id="cp1">
			<path d="M-71 -211L569 -211L569 284L-71 284Z" />
		</clipPath>
	</defs>
	<style>
		tspan { white-space:pre }
		.shp0 { fill: #e7c68e } 
		.shp1 { fill: #000000 } 
	</style>
	<g id="Followers" clip-path="url(#cp1)">
		<g id="sidemenu">
			<g id="Group 478">
				<g id="email(1)">
					<g id="Group 475">
						<path id="Path 507" class="shp0" d="M1.79 2.1L28.02 2.1L14.93 10.1L1.79 2.1Z" />
						<path id="Ellipse 30" class="shp0" d="M15 27C11.68 27 9 24.32 9 21C9 17.68 11.68 15 15 15C18.32 15 21 17.68 21 21C21 24.32 18.32 27 15 27Z" />
						<path id="Path 504" fill-rule="evenodd" class="shp0" d="M29.12 1C29.61 1 30 1.38 30 1.84L30 20.34C30 20.81 29.61 21.19 29.12 21.19L22.03 21.19C22.03 21.21 22.03 21.24 22.03 21.27C22.03 24.98 18.88 28 15 28C11.12 28 7.97 24.98 7.97 21.27C7.97 21.24 7.97 21.21 7.97 21.19L0.88 21.19C0.39 21.19 0 20.81 0 20.34L0 1.84C0 1.38 0.39 1 0.88 1L29.12 1ZM3.4 2.68L15 9.97L26.59 2.68L3.4 2.68ZM15 26.32C17.91 26.32 20.27 24.05 20.27 21.27C20.27 18.49 17.91 16.22 15 16.22C12.09 16.22 9.73 18.49 9.73 21.27C9.73 24.05 12.09 26.32 15 26.32ZM28.24 3.6L15.53 11.69C15.37 11.8 15.18 11.86 15 11.86C14.81 11.86 14.63 11.8 14.47 11.69L1.76 3.6L1.76 19.5L8.21 19.5C9.03 16.65 11.76 14.54 15 14.54C18.24 14.54 20.97 16.65 21.78 19.5L28.24 19.5L28.24 3.6Z" />
						<g id="check">
							<g id="Group 476">
								<path id="Path 508" class="shp1" d="M11 21.26C11.16 20.96 11.49 20.58 12.07 20.73C12.57 20.88 12.9 21.34 13.14 21.94C15.12 19.9 16.77 18.47 18.75 18.02C19 18.02 19.08 18.02 18.91 18.17C16.77 19.53 14.71 21.56 13.06 24.21C12.98 24.28 12.9 24.28 12.81 24.21C12.48 23.45 12.24 22.7 11.82 21.94C11.66 21.56 11.41 21.26 11 21.26Z" />
							</g>
						</g>
					</g>
				</g>
			</g>
		</g>
	</g>
</svg>