<svg xmlns="http://www.w3.org/2000/svg" viewBox="0 0 28 28" width="28" height="28">
	<defs>
		<clipPath clipPathUnits="userSpaceOnUse" id="cp1">
			<path d="M-108 -211L532 -211L532 284L-108 284Z" />
		</clipPath>
	</defs>
	<style>
		tspan { white-space:pre }
		.shp0 { fill: #e7c68e } 
		.shp1 { fill: #000000 } 
	</style>
	<g id="Followers" clip-path="url(#cp1)">
		<g id="sidemenu">
			<g id="Group 478">
				<g id="smartphone">
					<path id="Path 505" class="shp0" d="M26.43 8.68L20.52 6.67C20.35 6.61 20.15 6.61 19.98 6.67L14.07 8.68C13.73 8.8 13.5 9.12 13.5 9.48L13.5 14C13.5 19.52 19.66 22.2 19.92 22.31C20.03 22.35 20.14 22.37 20.25 22.37C20.36 22.37 20.47 22.35 20.58 22.31C20.84 22.2 27 19.52 27 14L27 9.48C27 9.12 26.77 8.8 26.43 8.68L26.43 8.68Z" />
					<path id="Path 506" class="shp0" d="M18 4.97L18 4.37C18 2.52 16.48 1 14.62 1L3.37 1C1.52 1 0 2.52 0 4.37L0 24.62C0 26.48 1.52 28 3.37 28L14.62 28C16.48 28 18 26.48 18 24.62L18 23.88C17.29 23.5 16.51 22.99 15.75 22.39L15.75 23.5L2.25 23.5L2.25 4.37C2.25 3.76 2.76 3.25 3.37 3.25L14.62 3.25C15.24 3.25 15.75 3.76 15.75 4.37L15.75 5.74L18 4.97Z" />
					<g id="check">
						<g id="Group 476">
							<path id="Path 508" class="shp1" d="M16 14.26C16.16 13.96 16.49 13.58 17.07 13.73C17.57 13.88 17.9 14.34 18.14 14.94C20.12 12.9 21.77 11.47 23.75 11.02C24 11.02 24.08 11.02 23.91 11.17C21.77 12.53 19.71 14.56 18.06 17.21C17.98 17.28 17.9 17.28 17.81 17.21C17.48 16.45 17.24 15.7 16.82 14.94C16.66 14.56 16.41 14.26 16 14.26Z" />
						</g>
					</g>
				</g>
			</g>
		</g>
	</g>
</svg>