<svg xmlns="http://www.w3.org/2000/svg" viewBox="0 0 56 60" width="28" height="28">
	<defs>
		<clipPath clipPathUnits="userSpaceOnUse" id="cp1">
			<path d="M-539 -15L101 -15L101 485L-539 485Z" />
		</clipPath>
	</defs>
	<style>
		tspan { white-space:pre }
		.shp0 { fill: #e7c68e } 
	</style>
	<g id="My profile" clip-path="url(#cp1)">
		<g id="header">
			<g id="bell">
				<g id="Group 294">
					<g id="Group 293">
						<path id="Path 174" class="shp0" d="M15.32 47.94C15.31 47.95 15.3 47.97 15.29 47.98C13.34 51.35 14.5 55.67 17.87 57.61C21.25 59.56 25.56 58.41 27.51 55.03C27.52 55.02 27.52 55.01 27.53 54.99L15.32 47.94Z" />
						<path id="Path 175" class="shp0" d="M46.09 55.29L45.26 43.6C46.75 41.03 50.38 34.74 51.32 33.11C55.4 26.04 53.8 17.26 47.94 12.1L49.8 8.87C50.71 7.29 50.18 5.28 48.61 4.37C47.05 3.47 45.04 4.01 44.12 5.59L42.26 8.82C34.86 6.32 26.46 9.33 22.37 16.4C20.77 19.17 17.24 25.28 16.32 26.89L5.78 32.02C4.67 32.56 3.95 33.67 3.89 34.9C3.85 36.13 4.48 37.29 5.54 37.9L41.11 58.44C42.17 59.05 43.49 59.02 44.54 58.36C45.58 57.7 46.18 56.52 46.09 55.29Z" />
					</g>
				</g>
			</g>
		</g>
	</g>
</svg>