<svg xmlns="http://www.w3.org/2000/svg" viewBox="0 0 64 60" width="28" height="28">
	<defs>
		<clipPath clipPathUnits="userSpaceOnUse" id="cp1">
			<path d="M-507 -15L133 -15L133 485L-507 485Z" />
		</clipPath>
	</defs>
	<style>
		tspan { white-space:pre }
		.shp0 { fill: #e7c68e } 
		.shp1 { fill: none;stroke: #000000;stroke-linecap:round;stroke-width: 6 } 
	</style>
	<g id="My profile" clip-path="url(#cp1)">
		<g id="header">
			<g id="chat">
				<path id="Path 176" class="shp0" d="M42.92 50.61C42.92 50.61 23.57 59.85 9.76 45.31C-4.05 30.77 7.45 14.04 7.45 14.04C7.45 14.04 26.24 -0.15 43.78 7.32C61.32 14.79 60.67 27.47 60.67 27.47C60.67 27.47 61.65 41.57 49.32 48.28L50.62 56.01L42.92 50.61Z" />
				<g id="Group 114">
					<path id="Path 168" fill-rule="evenodd" class="shp0" d="M54.34 59C49.85 59 45.55 57.16 42.38 53.91C39.03 54.79 35.29 55.27 31.69 55.27C22.01 55.27 13.84 52.47 8.07 47.18C5.45 44.77 3.41 41.94 2.02 38.76C0.68 35.69 0 32.44 0 29.09C0 22.21 2.86 15.81 8.05 11.06C13.82 5.79 22 3 31.69 3C39.39 3 46.46 5.17 52.14 9.27C57.37 13.04 61.13 18.3 62.74 24.06C64.07 28.86 63.85 33.75 62.1 38.18C60.34 42.62 57.07 46.49 52.58 49.44C52.87 51.86 53.94 54.09 55.66 55.81L58.85 59L54.34 59ZM31.69 6.73C22.94 6.73 15.64 9.18 10.57 13.81C6.16 17.85 3.73 23.27 3.73 29.09C3.73 39.9 12.48 51.53 31.69 51.53C35.35 51.53 39.17 50.99 42.45 50.01L43.62 49.66L44.41 50.59C46 52.47 48.03 53.84 50.26 54.59C49.34 52.72 48.83 50.65 48.78 48.5L48.75 47.41L49.68 46.85C58 41.83 61.54 33.68 59.14 25.06C56.6 15.94 47.13 6.73 31.69 6.73Z" />
					<path id="Line 14" class="shp1" d="M43.85 24.78L18.96 24.78L43.85 24.78Z" />
					<path id="Line 15" class="shp1" d="M43.85 35.15L18.96 35.15L43.85 35.15Z" />
				</g>
			</g>
		</g>
	</g>
</svg>