<svg xmlns="http://www.w3.org/2000/svg" viewBox="0 0 17 17" width="17" height="17">
	<defs>
		<clipPath clipPathUnits="userSpaceOnUse" id="cp1">
			<path d="M-295 -266L345 -266L345 229L-295 229Z" />
		</clipPath>
	</defs>
	<style>
		tspan { white-space:pre }
		.shp0 { fill: #000000;stroke: #000000 } 
	</style>
	<g id="Bidding post detail – 1" clip-path="url(#cp1)">
		<g id="detailpost">
			<g id="Group 504">
				<g id="share(1)">
					<g id="Group 11">
						<path id="Path 4" fill-rule="evenodd" class="shp0" d="M15.12 12.67C15.12 14.03 14.02 15.13 12.66 15.13C11.31 15.13 10.2 14.03 10.2 12.67C10.2 12.42 10.24 12.17 10.31 11.94L6.46 9.97C6.01 10.6 5.28 11 4.46 11C3.1 11 2 9.9 2 8.54C2 7.18 3.1 6.08 4.46 6.08C5.2 6.08 5.86 6.41 6.31 6.92L10.37 4.48C10.26 4.21 10.2 3.91 10.2 3.59C10.2 2.23 11.31 1.13 12.66 1.13C14.02 1.13 15.12 2.23 15.12 3.59C15.12 4.95 14.02 6.05 12.66 6.05C11.91 6.05 11.24 5.72 10.79 5.19L6.74 7.62C6.86 7.9 6.92 8.21 6.92 8.54C6.92 8.78 6.89 9.01 6.82 9.23L10.68 11.21C11.13 10.6 11.85 10.21 12.66 10.21C14.02 10.21 15.12 11.31 15.12 12.67ZM11.02 3.59C11.02 4.5 11.76 5.23 12.66 5.23C13.57 5.23 14.3 4.5 14.3 3.59C14.3 2.69 13.57 1.95 12.66 1.95C11.76 1.95 11.02 2.69 11.02 3.59ZM6.1 8.54C6.1 7.64 5.37 6.9 4.46 6.9C3.56 6.9 2.82 7.64 2.82 8.54C2.82 9.45 3.56 10.18 4.46 10.18C5.37 10.18 6.1 9.45 6.1 8.54ZM14.3 12.67C14.3 11.77 13.57 11.03 12.66 11.03C11.76 11.03 11.02 11.77 11.02 12.67C11.02 13.57 11.76 14.31 12.66 14.31C13.57 14.31 14.3 13.57 14.3 12.67Z" />
					</g>
				</g>
			</g>
		</g>
	</g>
</svg>