<svg xmlns="http://www.w3.org/2000/svg" viewBox="0 0 56 52" width="24" height="26">
	<defs>
		<clipPath clipPathUnits="userSpaceOnUse" id="cp1">
			<path d="M-51 -236L589 -236L589 264L-51 264Z" />
		</clipPath>
	</defs>
	<style>
		tspan { white-space:pre }
		.shp0 { fill: #e7c68e } 
	</style>
	<g id="My profile" clip-path="url(#cp1)">
		<g id="sidemenu">
			<g id="Group 416">
				<g id="buy">
					<path id="Path 547" fill-rule="evenodd" class="shp0" d="M54.53 12.62L50.32 32.24C49.94 34 48.36 35.28 46.57 35.28L12.96 35.28L13.38 38.33C13.41 38.54 13.59 38.69 13.8 38.69L47.79 38.69C48.73 38.69 49.49 39.46 49.49 40.4C49.49 41.34 48.73 42.11 47.79 42.11L44.08 42.11C44.27 42.64 44.37 43.22 44.37 43.81C44.37 46.64 42.08 48.93 39.25 48.93C36.43 48.93 34.13 46.64 34.13 43.81C34.13 43.22 34.24 42.64 34.43 42.11L25.31 42.11C25.5 42.64 25.6 43.22 25.6 43.81C25.6 46.64 23.3 48.93 20.48 48.93C17.66 48.93 15.36 46.64 15.36 43.81C15.36 43.22 15.46 42.64 15.65 42.11L13.8 42.11C11.9 42.11 10.26 40.68 10 38.8L5.39 5.78C5.36 5.57 5.18 5.41 4.97 5.41L1.71 5.41C0.76 5.41 0 4.65 0 3.71C0 2.76 0.76 2 1.71 2L4.97 2C6.87 2 8.51 3.42 8.77 5.31L9.14 7.97L50.77 7.97C51.94 7.97 53.03 8.49 53.76 9.4C54.49 10.31 54.77 11.48 54.53 12.62ZM20.48 42.11C19.54 42.11 18.77 42.87 18.77 43.81C18.77 44.76 19.54 45.52 20.48 45.52C21.42 45.52 22.19 44.76 22.19 43.81C22.19 42.87 21.42 42.11 20.48 42.11ZM39.25 42.11C38.31 42.11 37.55 42.87 37.55 43.81C37.55 44.76 38.31 45.52 39.25 45.52C40.19 45.52 40.96 44.76 40.96 43.81C40.96 42.87 40.19 42.11 39.25 42.11ZM51.1 11.54C51.05 11.47 50.94 11.39 50.77 11.39L9.62 11.39L12.48 31.87L46.57 31.87C46.77 31.87 46.94 31.72 46.98 31.53L51.19 11.9C51.22 11.74 51.16 11.62 51.1 11.54Z" />
				</g>
			</g>
		</g>
	</g>
</svg>