<svg xmlns="http://www.w3.org/2000/svg" viewBox="0 0 32 52" width="24" height="26">
	<defs>
		<clipPath clipPathUnits="userSpaceOnUse" id="cp1">
			<path d="M-54 -264L586 -264L586 236L-54 236Z" />
		</clipPath>
	</defs>
	<style>
		tspan { white-space:pre }
		.shp0 { fill: #e7c68e } 
	</style>
	<g id="My profile" clip-path="url(#cp1)">
		<g id="sidemenu">
			<g id="Group 416">
				<g id="dollar" >
					<g id="Group 424">
						<path id="Path 209" fill-rule="evenodd" class="shp0" d="M29.57 31.99C29.57 37.35 26.22 42.4 17.92 42.95L17.92 46.36C17.92 47.38 17.09 48.21 16.06 48.21C15.02 48.26 14.13 47.46 14.09 46.42C14.09 46.4 14.08 46.38 14.08 46.36L14.08 43.01C9.85 42.87 5.81 41.24 2.67 38.41C2.24 37.97 2 37.38 2 36.77C1.98 35.36 3.06 34.19 4.47 34.09C5.02 34.1 5.55 34.29 5.99 34.64C8.28 36.57 11.08 37.8 14.05 38.2L14.05 26.02C8.42 24.5 2.55 22.59 2.55 15.68C2.55 10.05 7.2 5.82 14.05 5.33L14.05 1.86C14.07 0.82 14.92 -0.01 15.97 0C15.99 0 16.01 0 16.03 0C17.06 0 17.89 0.83 17.89 1.86L17.89 5.45C21.4 5.65 24.74 7 27.41 9.29C27.85 9.72 28.09 10.31 28.08 10.93C28.07 12.36 26.9 13.52 25.46 13.52C25.02 13.51 24.59 13.37 24.22 13.12C22.37 11.71 20.21 10.77 17.92 10.38L17.92 21.09C23.55 22.62 29.57 24.81 29.57 31.99ZM14.08 10.17C10.52 10.44 8.18 12.48 8.18 15.31C8.18 18.14 10.77 19.15 14.08 20.12L14.08 10.17ZM24 32.66C24.04 29.46 21.36 28.16 17.92 27.18L17.92 38.26C22.42 37.71 24 34.97 24 32.66Z" />
					</g>
				</g>
			</g>
		</g>
	</g>
</svg>