<svg xmlns="http://www.w3.org/2000/svg" viewBox="0 0 56 56" width="24" height="26">
	<defs>
		<clipPath clipPathUnits="userSpaceOnUse" id="cp1">
			<path d="M-51 -293L589 -293L589 207L-51 207Z" />
		</clipPath>
	</defs>
	<style>
		tspan { white-space:pre }
		.shp0 { fill: #e7c68e } 
	</style>
	<g id="My profile" clip-path="url(#cp1)">
		<g id="sidemenu">
			<g id="Group 416">
				<g id="logout" >
					<path id="Path 206" class="shp0" d="M46.34 52.08L24.43 52.08C21.27 52.08 18.69 49.51 18.69 46.34L18.69 36.95C18.69 36.09 19.4 35.39 20.26 35.39C21.12 35.39 21.82 36.09 21.82 36.95L21.82 46.34C21.82 47.78 22.99 48.95 24.43 48.95L46.34 48.95C47.78 48.95 48.95 47.78 48.95 46.34L48.95 7.74C48.95 6.3 47.78 5.13 46.34 5.13L24.43 5.13C22.99 5.13 21.82 6.3 21.82 7.74L21.82 17.13C21.82 17.99 21.12 18.69 20.26 18.69C19.4 18.69 18.69 17.99 18.69 17.13L18.69 7.74C18.69 4.57 21.27 2 24.43 2L46.34 2C49.51 2 52.08 4.57 52.08 7.74L52.08 46.34C52.08 49.51 49.51 52.08 46.34 52.08Z" />
					<path id="Path 207" class="shp0" d="M33.82 28.61L3.56 28.61C2.7 28.61 2 27.91 2 27.04C2 26.18 2.7 25.48 3.56 25.48L33.82 25.48C34.69 25.48 35.39 26.18 35.39 27.04C35.39 27.91 34.69 28.61 33.82 28.61Z" />
					<path id="Path 208" class="shp0" d="M25.48 36.95C25.07 36.95 24.68 36.8 24.37 36.5C23.76 35.88 23.76 34.89 24.37 34.28L31.61 27.04L24.37 19.8C23.76 19.19 23.76 18.2 24.37 17.58C24.98 16.97 25.97 16.97 26.58 17.58L34.93 25.93C35.54 26.54 35.54 27.53 34.93 28.15L26.58 36.49C26.28 36.8 25.88 36.95 25.48 36.95Z" />
				</g>
			</g>
		</g>
	</g>
</svg>