<svg xmlns="http://www.w3.org/2000/svg" viewBox="0 0 60 56" width="24" height="26">
	<defs>
		<clipPath clipPathUnits="userSpaceOnUse" id="cp1">
			<path d="M-50 -151L590 -151L590 349L-50 349Z" />
		</clipPath>
	</defs>
	<style>
		tspan { white-space:pre }
		.shp0 { fill: #e7c68e } 
	</style>
	<g id="My profile" clip-path="url(#cp1)">
		<g id="sidemenu">
			<g id="Group 416">
				<g id="posting" >
					<g id="Group 423">
						<path id="Path 205" fill-rule="evenodd" class="shp0" d="M57.25 28.34L51.76 31.76L57.25 35.14C57.71 35.43 58 35.94 58 36.49C58 37.03 57.72 37.54 57.26 37.83L31.84 53.76C31.58 53.92 31.29 54 31 54C30.71 54 30.41 53.92 30.16 53.76L4.74 37.83C4.28 37.54 4 37.04 4 36.49C4 35.95 4.28 35.44 4.74 35.15L10.2 31.74L4.74 28.34C4.28 28.05 4 27.55 4 27C4 26.45 4.28 25.95 4.74 25.66L10.2 22.25L4.74 18.85C4.28 18.56 4 18.06 4 17.51C4 16.96 4.28 16.46 4.74 16.17L30.16 0.24C30.67 -0.08 31.32 -0.08 31.84 0.24L57.26 16.17C57.72 16.46 58 16.96 58 17.51C58 18.06 57.72 18.56 57.25 18.85L51.76 22.27L57.25 25.65C57.71 25.94 58 26.45 58 27C58 27.54 57.72 28.05 57.25 28.34ZM31 31.46C31.64 31.06 53.21 17.64 53.43 17.5L31 3.45L8.57 17.5L31 31.46ZM48.76 33.63L31.83 44.16C31.58 44.32 31.29 44.4 31 44.4C30.71 44.4 30.42 44.32 30.16 44.16L13.19 33.6L8.56 36.49L31 50.55L53.42 36.5L48.76 33.63ZM53.41 27.01L48.76 24.14L31.83 34.67C31.58 34.83 31.29 34.91 31 34.91C30.71 34.91 30.42 34.83 30.16 34.67L13.19 24.11L8.57 27L31 40.96C31.59 40.59 53.28 27.09 53.41 27.01Z" />
					</g>
				</g>
			</g>
		</g>
	</g>
</svg>