<svg xmlns="http://www.w3.org/2000/svg" viewBox="0 0 52 56" width="22" height="26">
	<defs>
		<clipPath clipPathUnits="userSpaceOnUse" id="cp1">
			<path d="M-51 -122L589 -122L589 378L-51 378Z" />
		</clipPath>
	</defs>
	<style>
		tspan { white-space:pre }
		.shp0 { fill: #e7c68e } 
	</style>
	<g id="My profile" clip-path="url(#cp1)">
		<g id="sidemenu">
			<g id="Group 416">
				<g id="user">
					<g id="Group 421">
						<path id="Path 203" fill-rule="evenodd" class="shp0" d="M26.12 28.32C18.67 28.32 12.96 22.61 12.96 15.16C12.96 7.7 18.67 2 26.12 2C33.58 2 39.28 7.7 39.28 15.16C39.28 22.61 33.58 28.32 26.12 28.32ZM26.12 6.39C21.3 6.39 17.35 10.33 17.35 15.16C17.35 19.98 21.3 23.93 26.12 23.93C30.95 23.93 34.89 19.98 34.89 15.16C34.89 10.33 30.95 6.39 26.12 6.39Z" />
					</g>
					<g id="Group 422">
						<path id="Path 204" class="shp0" d="M48.05 54.64C46.74 54.64 45.86 53.76 45.86 52.44L45.86 43.67C45.86 40.16 42.79 37.09 39.28 37.09L12.96 37.09C9.46 37.09 6.39 40.16 6.39 43.67L6.39 52.44C6.39 53.76 5.51 54.64 4.19 54.64C2.88 54.64 2 53.76 2 52.44L2 43.67C2 37.53 6.82 32.7 12.96 32.7L39.28 32.7C45.42 32.7 50.25 37.53 50.25 43.67L50.25 52.44C50.25 53.76 49.37 54.64 48.05 54.64Z" />
					</g>
				</g>
			</g>
		</g>
	</g>
</svg>