<svg xmlns="http://www.w3.org/2000/svg" viewBox="0 0 46 62" width="66" height="82">
	<defs>
		<clipPath clipPathUnits="userSpaceOnUse" id="cp1">
			<path d="M-297 -155L343 -155L343 282L-297 282Z" />
		</clipPath>
	</defs>
	<style>
		tspan { white-space:pre }
		.shp0 { fill: #e7c68e } 
	</style>
	<g id="Application Review" clip-path="url(#cp1)">
		<g id="form">
			<g id="correct">
				<path id="Path 542" fill-rule="evenodd" class="shp0" d="M45.5 11.22L45.5 54.38C45.5 58.13 42.48 61.16 38.76 61.16L6.74 61.16C3.02 61.16 0 58.13 0 54.38L0 11.22C0 7.48 3.02 4.44 6.74 4.44L12.68 4.44L12.68 1.52C12.68 0.77 13.28 0.16 14.02 0.16L31.47 0.16C32.22 0.16 32.82 0.77 32.82 1.52L32.82 4.44L38.76 4.44C42.48 4.44 45.5 7.48 45.5 11.22ZM15.37 8.48L30.13 8.48L30.13 2.87L15.37 2.87L15.37 8.48ZM42.8 11.22C42.8 8.98 40.99 7.16 38.76 7.15L32.82 7.15L32.82 9.85C32.82 10.6 32.22 11.21 31.47 11.21L14.02 11.21C13.28 11.21 12.68 10.6 12.68 9.85L12.68 7.15L6.74 7.15C4.51 7.16 2.7 8.98 2.7 11.22L2.7 54.38C2.7 56.63 4.51 58.44 6.74 58.45L38.76 58.45C40.99 58.44 42.8 56.63 42.8 54.38L42.8 11.22Z" />
				<path id="Path 543" fill-rule="evenodd" class="shp0" d="M36.2 32.8C36.2 40.28 30.18 46.35 22.75 46.35C15.32 46.35 9.3 40.28 9.3 32.8C9.3 25.32 15.32 19.26 22.75 19.26C30.17 19.27 36.18 25.33 36.2 32.8ZM33.51 32.8C33.51 26.82 28.69 21.97 22.75 21.97C16.81 21.97 11.99 26.82 11.99 32.8C11.99 38.79 16.81 43.64 22.75 43.64C28.69 43.63 33.5 38.78 33.51 32.8Z" />
				<path id="Path 544" class="shp0" d="M28.3 28.32L21.16 35.15L17.51 31.49C16.98 30.96 16.12 30.96 15.6 31.49C15.07 32.02 15.07 32.87 15.6 33.4L20.19 37.99C20.44 38.25 20.79 38.39 21.15 38.38C21.5 38.39 21.84 38.25 22.09 38L30.18 30.27C30.44 30.02 30.59 29.68 30.6 29.32C30.61 28.97 30.47 28.62 30.22 28.36C29.7 27.83 28.85 27.81 28.3 28.32Z" />
			</g>
		</g>
	</g>
</svg>