<svg xmlns="http://www.w3.org/2000/svg" viewBox="0 0 190 76" width="190" height="76">
	<defs>
		<clipPath clipPathUnits="userSpaceOnUse" id="cp1">
			<path d="M-109 -541L531 -541L531 333L-109 333Z" />
		</clipPath>
	</defs>
	<style>
		tspan { white-space:pre }
		.shp0 { fill: #ffffff;stroke: #e7c68e;stroke-width: 2 } 
		.shp1 { fill: #e7c68e } 
	</style>
	<g id="Bidding post" clip-path="url(#cp1)">
		<g id="form">
			<g id="Group 542" style="opacity: 0.4">
				<path id="Rectangle 148" class="shp0" d="M5 0.5L185 0.5C187.76 0.5 190 2.73 190 5.5L190 70.5C190 73.26 187.76 75.5 185 75.5L5 75.5C2.23 75.5 0 73.26 0 70.5L0 5.5C0 2.73 2.23 0.5 5 0.5Z" />
				<g id="photo">
					<path id="Path 539" class="shp1" d="M84.91 49.33C82.18 49.33 79.75 47.58 78.87 44.98L78.81 44.79C78.61 44.1 78.52 43.52 78.52 42.94L78.52 31.32L74.38 45.12C73.85 47.15 75.06 49.25 77.1 49.82L103.45 56.87C103.78 56.96 104.11 57 104.44 57C106.13 57 107.69 55.87 108.12 54.21L109.66 49.33L84.91 49.33Z" />
					<path id="Path 540" class="shp1" d="M89.6 31.43C91.48 31.43 93.01 29.9 93.01 28.02C93.01 26.14 91.48 24.61 89.6 24.61C87.72 24.61 86.19 26.14 86.19 28.02C86.19 29.9 87.72 31.43 89.6 31.43Z" />
					<path id="Path 541" fill-rule="evenodd" class="shp1" d="M110.9 19.5C113.25 19.5 115.17 21.41 115.17 23.76L115.17 42.51C115.17 44.86 113.25 46.77 110.9 46.77L85.34 46.77C82.99 46.77 81.08 44.86 81.08 42.51L81.08 23.76C81.08 21.41 82.99 19.5 85.34 19.5L110.9 19.5ZM84.49 23.76L84.49 39.85L89.19 35.15C90.35 33.98 92.25 33.98 93.42 35.15L95.48 37.21L101.81 29.61C102.38 28.93 103.2 28.54 104.09 28.53C104.98 28.55 105.8 28.91 106.37 29.58L111.76 35.86L111.76 23.76C111.76 23.29 111.38 22.91 110.9 22.91L85.34 22.91C84.87 22.91 84.49 23.29 84.49 23.76Z" />
				</g>
			</g>
		</g>
	</g>
</svg>