<svg xmlns="http://www.w3.org/2000/svg" viewBox="0 0 17 15" width="23" height="16">
	<defs>
		<clipPath clipPathUnits="userSpaceOnUse" id="cp1">
			<path d="M-256 -80L384 -80L384 357L-256 357Z" />
		</clipPath>
	</defs>
	<style>
		tspan { white-space:pre }
		.shp0 { fill: #e7c68e } 
	</style>
	<g id="Application Review" clip-path="url(#cp1)">
		<g id="div_header">
			<g id="business info">
				<g id="shop(1)">
					<g id="Group 521">
						<path id="Path 531" fill-rule="evenodd" class="shp0" d="M12.72 9.18L12.72 10.75C12.72 11.31 12.27 11.77 11.71 11.77L9.66 11.77C9.1 11.77 8.64 11.31 8.64 10.75L8.64 9.18C8.64 8.62 9.1 8.17 9.66 8.17L11.71 8.17C12.27 8.17 12.72 8.62 12.72 9.18ZM11.98 9.18C11.98 9.03 11.86 8.91 11.71 8.91L9.66 8.91C9.51 8.91 9.38 9.03 9.38 9.18L9.38 10.75C9.38 10.9 9.51 11.03 9.66 11.03L11.71 11.03C11.86 11.03 11.98 10.91 11.98 10.75L11.98 9.18Z" />
						<path id="Path 532" fill-rule="evenodd" class="shp0" d="M14.77 7.29C14.77 7.31 14.77 7.32 14.77 7.33L14.77 13.79C14.77 13.99 14.61 14.16 14.4 14.16C14.4 14.16 4.72 14.16 4.71 14.16C4.71 14.16 2.67 14.16 2.66 14.16C2.46 14.16 2.29 13.99 2.29 13.79L2.29 7.29C1.53 6.95 1 6.19 1 5.31C1 5.25 1.02 5.19 1.05 5.13L3.29 1.19C3.35 1.07 3.48 1 3.61 1L13.46 1C13.59 1 13.72 1.07 13.78 1.19L16.02 5.13C16.06 5.19 16.07 5.25 16.07 5.31C16.07 6.2 15.54 6.96 14.77 7.29ZM2.07 4.82L15 4.82L13.24 1.74L3.82 1.74L2.07 4.82ZM8.93 5.56C9.05 6.23 9.63 6.73 10.33 6.73C11.03 6.73 11.61 6.23 11.73 5.56L8.93 5.56ZM5.34 5.56C5.46 6.23 6.05 6.73 6.75 6.73C7.45 6.73 8.03 6.23 8.14 5.56L5.34 5.56ZM3.16 6.73C3.86 6.73 4.45 6.23 4.56 5.56L1.76 5.56C1.88 6.23 2.46 6.73 3.16 6.73ZM14.04 13.42L14.04 7.47C13.99 7.47 13.95 7.47 13.91 7.47C13.16 7.47 12.51 7.09 12.12 6.52C11.73 7.09 11.07 7.47 10.33 7.47C9.59 7.47 8.93 7.09 8.54 6.52C8.15 7.09 7.49 7.47 6.75 7.47C6 7.47 5.34 7.09 4.95 6.52C4.57 7.09 3.91 7.47 3.16 7.47C3.12 7.47 3.08 7.47 3.03 7.47L3.03 13.42L4.34 13.42L4.34 9.43C4.34 8.73 4.91 8.17 5.61 8.17L6.68 8.17C7.38 8.17 7.95 8.74 7.95 9.43L7.95 13.42L14.04 13.42ZM7.21 13.42L7.21 9.43C7.21 9.14 6.97 8.91 6.68 8.91L5.61 8.91C5.32 8.91 5.08 9.14 5.08 9.43L5.08 13.42L7.21 13.42ZM15.31 5.56L12.51 5.56C12.63 6.23 13.21 6.73 13.91 6.73C14.61 6.73 15.19 6.23 15.31 5.56Z" />
					</g>
				</g>
			</g>
		</g>
	</g>
</svg>