<svg xmlns="http://www.w3.org/2000/svg" viewBox="0 0 13 14" width="21" height="17">
	<defs>
		<clipPath clipPathUnits="userSpaceOnUse" id="cp1">
			<path d="M-70 -81L570 -81L570 356L-70 356Z" />
		</clipPath>
	</defs>
	<style>
		tspan { white-space:pre }
		.shp0 { fill: #e7c68e } 
	</style>
	<g id="Application Review" clip-path="url(#cp1)">
		<g id="div_header">
			<g id="acc">
				<g id="user">
					<g id="Group 421">
						<path id="Path 203" fill-rule="evenodd" class="shp0" d="M6.03 6.58C4.17 6.58 2.74 5.15 2.74 3.29C2.74 1.43 4.17 0 6.03 0C7.9 0 9.32 1.43 9.32 3.29C9.32 5.15 7.9 6.58 6.03 6.58ZM6.03 1.1C4.82 1.1 3.84 2.08 3.84 3.29C3.84 4.5 4.82 5.48 6.03 5.48C7.24 5.48 8.22 4.5 8.22 3.29C8.22 2.08 7.24 1.1 6.03 1.1Z" />
					</g>
					<g id="Group 422">
						<path id="Path 204" class="shp0" d="M11.51 13.16C11.18 13.16 10.97 12.94 10.97 12.61L10.97 10.42C10.97 9.54 10.2 8.77 9.32 8.77L2.74 8.77C1.86 8.77 1.1 9.54 1.1 10.42L1.1 12.61C1.1 12.94 0.88 13.16 0.55 13.16C0.22 13.16 0 12.94 0 12.61L0 10.42C0 8.88 1.21 7.68 2.74 7.68L9.32 7.68C10.86 7.68 12.06 8.88 12.06 10.42L12.06 12.61C12.06 12.94 11.84 13.16 11.51 13.16Z" />
					</g>
				</g>
			</g>
		</g>
	</g>
</svg>